# xmcd CD database file
#
# Track frame offsets:
#	150
#	24379
#	37947
#	62201
#	84256
#	102435
#	123767
#	143325
#	167388
#	187936
#	212616
#	254086
#
# Disc length: 3580 seconds
#
# Revision: 2
# Processed by: cddbd v1.4b41PL1 Copyright (c) Steve Scherf et al.
# Submitted via: Feurio! 1.60 - http://www.feurio.com
#
DISCID=910dfa0c,a00dfa0c
DTITLE=Hot Tuna - Live At Sweetwater II
DYEAR=1900
DGENRE=
TTITLE0=Hesitation Blues
TTITLE1=Dime For A Beer
TTITLE2=Death Don't Have No Mercy
TTITLE3=99 Year Blues
TTITLE4=San Francisco Bay Blues
TTITLE5=Blue Moon Of Kentucky
TTITLE6=Ain't Got No Home
TTITLE7=Good Morning Little Schoolgirl
TTITLE8=3Rd Week At The Chelsea
TTITLE9=Ak-47
TTITLE10=Parchman Farm
TTITLE11=Endless Sleep
EXTD=
EXTT0=
EXTT1=
EXTT2=
EXTT3=
EXTT4=
EXTT5=
EXTT6=
EXTT7=
EXTT8=
EXTT9=
EXTT10=
EXTT11=Bonus Electric Cut: 
PLAYORDER=
